<?xml version='1.0' encoding='UTF-8'?>
<svg width="29mm" height="29mm" version="1.1" viewBox="0 0 29 29" xmlns="http://www.w3.org/2000/svg"><path d="M2,2H3V3H2zM3,2H4V3H3zM4,2H5V3H4zM5,2H6V3H5zM6,2H7V3H6zM7,2H8V3H7zM8,2H9V3H8zM10,2H11V3H10zM11,2H12V3H11zM12,2H13V3H12zM14,2H15V3H14zM15,2H16V3H15zM17,2H18V3H17zM18,2H19V3H18zM20,2H21V3H20zM21,2H22V3H21zM22,2H23V3H22zM23,2H24V3H23zM24,2H25V3H24zM25,2H26V3H25zM26,2H27V3H26zM2,3H3V4H2zM8,3H9V4H8zM12,3H13V4H12zM13,3H14V4H13zM16,3H17V4H16zM18,3H19V4H18zM20,3H21V4H20zM26,3H27V4H26zM2,4H3V5H2zM4,4H5V5H4zM5,4H6V5H5zM6,4H7V5H6zM8,4H9V5H8zM11,4H12V5H11zM13,4H14V5H13zM16,4H17V5H16zM20,4H21V5H20zM22,4H23V5H22zM23,4H24V5H23zM24,4H25V5H24zM26,4H27V5H26zM2,5H3V6H2zM4,5H5V6H4zM5,5H6V6H5zM6,5H7V6H6zM8,5H9V6H8zM10,5H11V6H10zM12,5H13V6H12zM14,5H15V6H14zM15,5H16V6H15zM18,5H19V6H18zM20,5H21V6H20zM22,5H23V6H22zM23,5H24V6H23zM24,5H25V6H24zM26,5H27V6H26zM2,6H3V7H2zM4,6H5V7H4zM5,6H6V7H5zM6,6H7V7H6zM8,6H9V7H8zM10,6H11V7H10zM11,6H12V7H11zM16,6H17V7H16zM17,6H18V7H17zM18,6H19V7H18zM20,6H21V7H20zM22,6H23V7H22zM23,6H24V7H23zM24,6H25V7H24zM26,6H27V7H26zM2,7H3V8H2zM8,7H9V8H8zM10,7H11V8H10zM12,7H13V8H12zM18,7H19V8H18zM20,7H21V8H20zM26,7H27V8H26zM2,8H3V9H2zM3,8H4V9H3zM4,8H5V9H4zM5,8H6V9H5zM6,8H7V9H6zM7,8H8V9H7zM8,8H9V9H8zM10,8H11V9H10zM12,8H13V9H12zM14,8H15V9H14zM16,8H17V9H16zM18,8H19V9H18zM20,8H21V9H20zM21,8H22V9H21zM22,8H23V9H22zM23,8H24V9H23zM24,8H25V9H24zM25,8H26V9H25zM26,8H27V9H26zM10,9H11V10H10zM13,9H14V10H13zM14,9H15V10H14zM17,9H18V10H17zM18,9H19V10H18zM2,10H3V11H2zM6,10H7V11H6zM8,10H9V11H8zM9,10H10V11H9zM10,10H11V11H10zM11,10H12V11H11zM13,10H14V11H13zM19,10H20V11H19zM20,10H21V11H20zM21,10H22V11H21zM22,10H23V11H22zM23,10H24V11H23zM26,10H27V11H26zM2,11H3V12H2zM4,11H5V12H4zM5,11H6V12H5zM6,11H7V12H6zM9,11H10V12H9zM10,11H11V12H10zM16,11H17V12H16zM17,11H18V12H17zM18,11H19V12H18zM19,11H20V12H19zM22,11H23V12H22zM23,11H24V12H23zM25,11H26V12H25zM5,12H6V13H5zM8,12H9V13H8zM10,12H11V13H10zM12,12H13V13H12zM15,12H16V13H15zM16,12H17V13H16zM17,12H18V13H17zM21,12H22V13H21zM22,12H23V13H22zM23,12H24V13H23zM24,12H25V13H24zM5,13H6V14H5zM6,13H7V14H6zM9,13H10V14H9zM10,13H11V14H10zM14,13H15V14H14zM16,13H17V14H16zM17,13H18V14H17zM18,13H19V14H18zM20,13H21V14H20zM21,13H22V14H21zM24,13H25V14H24zM25,13H26V14H25zM5,14H6V15H5zM7,14H8V15H7zM8,14H9V15H8zM11,14H12V15H11zM12,14H13V15H12zM14,14H15V15H14zM17,14H18V15H17zM18,14H19V15H18zM19,14H20V15H19zM20,14H21V15H20zM23,14H24V15H23zM24,14H25V15H24zM25,14H26V15H25zM26,14H27V15H26zM2,15H3V16H2zM7,15H8V16H7zM10,15H11V16H10zM15,15H16V16H15zM17,15H18V16H17zM18,15H19V16H18zM19,15H20V16H19zM22,15H23V16H22zM25,15H26V16H25zM6,16H7V17H6zM8,16H9V17H8zM9,16H10V17H9zM12,16H13V17H12zM15,16H16V17H15zM17,16H18V17H17zM18,16H19V17H18zM21,16H22V17H21zM22,16H23V17H22zM23,16H24V17H23zM24,16H25V17H24zM4,17H5V18H4zM5,17H6V18H5zM6,17H7V18H6zM7,17H8V18H7zM11,17H12V18H11zM12,17H13V18H12zM14,17H15V18H14zM18,17H19V18H18zM20,17H21V18H20zM21,17H22V18H21zM22,17H23V18H22zM24,17H25V18H24zM25,17H26V18H25zM2,18H3V19H2zM3,18H4V19H3zM4,18H5V19H4zM6,18H7V19H6zM8,18H9V19H8zM9,18H10V19H9zM11,18H12V19H11zM13,18H14V19H13zM18,18H19V19H18zM19,18H20V19H19zM20,18H21V19H20zM21,18H22V19H21zM22,18H23V19H22zM23,18H24V19H23zM24,18H25V19H24zM10,19H11V20H10zM11,19H12V20H11zM14,19H15V20H14zM15,19H16V20H15zM16,19H17V20H16zM17,19H18V20H17zM18,19H19V20H18zM22,19H23V20H22zM2,20H3V21H2zM3,20H4V21H3zM4,20H5V21H4zM5,20H6V21H5zM6,20H7V21H6zM7,20H8V21H7zM8,20H9V21H8zM10,20H11V21H10zM11,20H12V21H11zM12,20H13V21H12zM13,20H14V21H13zM14,20H15V21H14zM15,20H16V21H15zM16,20H17V21H16zM18,20H19V21H18zM20,20H21V21H20zM22,20H23V21H22zM2,21H3V22H2zM8,21H9V22H8zM13,21H14V22H13zM16,21H17V22H16zM18,21H19V22H18zM22,21H23V22H22zM23,21H24V22H23zM24,21H25V22H24zM26,21H27V22H26zM2,22H3V23H2zM4,22H5V23H4zM5,22H6V23H5zM6,22H7V23H6zM8,22H9V23H8zM10,22H11V23H10zM14,22H15V23H14zM16,22H17V23H16zM18,22H19V23H18zM19,22H20V23H19zM20,22H21V23H20zM21,22H22V23H21zM22,22H23V23H22zM23,22H24V23H23zM24,22H25V23H24zM25,22H26V23H25zM26,22H27V23H26zM2,23H3V24H2zM4,23H5V24H4zM5,23H6V24H5zM6,23H7V24H6zM8,23H9V24H8zM12,23H13V24H12zM16,23H17V24H16zM17,23H18V24H17zM20,23H21V24H20zM21,23H22V24H21zM24,23H25V24H24zM25,23H26V24H25zM26,23H27V24H26zM2,24H3V25H2zM4,24H5V25H4zM5,24H6V25H5zM6,24H7V25H6zM8,24H9V25H8zM12,24H13V25H12zM15,24H16V25H15zM16,24H17V25H16zM17,24H18V25H17zM18,24H19V25H18zM19,24H20V25H19zM20,24H21V25H20zM23,24H24V25H23zM25,24H26V25H25zM2,25H3V26H2zM8,25H9V26H8zM11,25H12V26H11zM14,25H15V26H14zM16,25H17V26H16zM17,25H18V26H17zM20,25H21V26H20zM21,25H22V26H21zM22,25H23V26H22zM23,25H24V26H23zM24,25H25V26H24zM25,25H26V26H25zM2,26H3V27H2zM3,26H4V27H3zM4,26H5V27H4zM5,26H6V27H5zM6,26H7V27H6zM7,26H8V27H7zM8,26H9V27H8zM10,26H11V27H10zM11,26H12V27H11zM12,26H13V27H12zM13,26H14V27H13zM14,26H15V27H14zM15,26H16V27H15zM16,26H17V27H16zM17,26H18V27H17zM24,26H25V27H24zM25,26H26V27H25zM26,26H27V27H26z" id="qr-path" fill="#000000" fill-opacity="1" fill-rule="nonzero" stroke="none" /></svg>